<svg xmlns="http://www.w3.org/2000/svg" width="760" height="430" viewBox="0 0 760 430">
<rect width="100%" height="100%" fill="white"/>
<text x="80" y="24" font-size="16" font-weight="bold">Fragility component breakdown</text>
<line x1="80" y1="320.0" x2="560" y2="320.0" stroke="#ddd"/>
<text x="70" y="324.0" text-anchor="end" font-size="13">0.0</text>
<line x1="80" y1="242.2" x2="560" y2="242.2" stroke="#ddd"/>
<text x="70" y="246.2" text-anchor="end" font-size="13">0.5</text>
<line x1="80" y1="164.4" x2="560" y2="164.4" stroke="#ddd"/>
<text x="70" y="168.4" text-anchor="end" font-size="13">1.0</text>
<line x1="80" y1="86.7" x2="560" y2="86.7" stroke="#ddd"/>
<text x="70" y="90.7" text-anchor="end" font-size="13">1.5</text>
<line x1="80" y1="320" x2="560" y2="320" stroke="#111"/>
<line x1="80" y1="40" x2="80" y2="320" stroke="#111"/>
<rect x="110" y="312.9" width="70" height="7.1" fill="#6699cc" stroke="white"/>
<rect x="110" y="306.5" width="70" height="6.5" fill="#fdae61" stroke="white"/>
<rect x="110" y="306.5" width="70" height="0.0" fill="#d7191c" stroke="white"/>
<text x="145.0" y="344" text-anchor="middle" font-size="12">P1 proxy</text>
<rect x="228" y="239.4" width="70" height="80.6" fill="#6699cc" stroke="white"/>
<rect x="228" y="158.4" width="70" height="80.9" fill="#fdae61" stroke="white"/>
<rect x="228" y="30.2" width="70" height="128.2" fill="#d7191c" stroke="white"/>
<text x="263.0" y="344" text-anchor="middle" font-size="12">P2 diffusion</text>
<rect x="346" y="317.4" width="70" height="2.6" fill="#6699cc" stroke="white"/>
<rect x="346" y="314.9" width="70" height="2.4" fill="#fdae61" stroke="white"/>
<rect x="346" y="314.9" width="70" height="0.0" fill="#d7191c" stroke="white"/>
<text x="381.0" y="344" text-anchor="middle" font-size="12">P3 sparse2</text>
<rect x="464" y="316.5" width="70" height="3.5" fill="#6699cc" stroke="white"/>
<rect x="464" y="312.9" width="70" height="3.6" fill="#fdae61" stroke="white"/>
<rect x="464" y="312.9" width="70" height="0.0" fill="#d7191c" stroke="white"/>
<text x="499.0" y="344" text-anchor="middle" font-size="12">P4 sparse4</text>
<rect x="600" y="68" width="18" height="18" fill="#6699cc"/>
<text x="628" y="82" font-size="14">Ordering loss</text>
<rect x="600" y="96" width="18" height="18" fill="#fdae61"/>
<text x="628" y="110" font-size="14">QA loss</text>
<rect x="600" y="124" width="18" height="18" fill="#d7191c"/>
<text x="628" y="138" font-size="14">Critical risk</text>
</svg>
