<svg xmlns="http://www.w3.org/2000/svg" width="900" height="520" viewBox="0 0 900 520">
<rect width="100%" height="100%" fill="white"/>
<text x="450.0" y="30" text-anchor="middle" font-family="Arial" font-size="22" font-weight="700">Experiment 09 Fragility Component Breakdown</text>
<rect x="110" y="411.2" width="115" height="8.8" fill="#4f81bd"/>
<rect x="110" y="402.9" width="115" height="8.2" fill="#f79646"/>
<rect x="110" y="402.9" width="115" height="0.0" fill="#c0504d"/>
<text x="167.5" y="442" text-anchor="middle" font-family="Arial" font-size="11">P1 proxy</text><text x="167.5" y="394.9" text-anchor="middle" font-family="Arial" font-size="12">0.113</text>
<rect x="285" y="344.4" width="115" height="75.6" fill="#4f81bd"/>
<rect x="285" y="253.7" width="115" height="90.7" fill="#f79646"/>
<rect x="285" y="102.6" width="115" height="151.1" fill="#c0504d"/>
<text x="342.5" y="442" text-anchor="middle" font-family="Arial" font-size="11">P2 diffusion</text><text x="342.5" y="94.6" text-anchor="middle" font-family="Arial" font-size="12">2.100</text>
<rect x="460" y="416.5" width="115" height="3.5" fill="#4f81bd"/>
<rect x="460" y="413.2" width="115" height="3.3" fill="#f79646"/>
<rect x="460" y="413.2" width="115" height="0.0" fill="#c0504d"/>
<text x="517.5" y="442" text-anchor="middle" font-family="Arial" font-size="11">P3 sparse2</text><text x="517.5" y="405.2" text-anchor="middle" font-family="Arial" font-size="12">0.045</text>
<rect x="635" y="416.8" width="115" height="3.2" fill="#4f81bd"/>
<rect x="635" y="413.5" width="115" height="3.3" fill="#f79646"/>
<rect x="635" y="413.5" width="115" height="0.0" fill="#c0504d"/>
<text x="692.5" y="442" text-anchor="middle" font-family="Arial" font-size="11">P4 sparse4</text><text x="692.5" y="405.5" text-anchor="middle" font-family="Arial" font-size="12">0.043</text>
<rect x="690" y="75" width="16" height="16" fill="#4f81bd"/><text x="712" y="88" font-family="Arial" font-size="13">Ordering loss</text>
<rect x="690" y="101" width="16" height="16" fill="#f79646"/><text x="712" y="114" font-family="Arial" font-size="13">QA loss</text>
<rect x="690" y="127" width="16" height="16" fill="#c0504d"/><text x="712" y="140" font-family="Arial" font-size="13">Critical error</text>
<text transform="translate(30 237.5) rotate(-90)" text-anchor="middle" font-family="Arial" font-size="14">Mean test component magnitude</text></svg>